<?xml version="1.0" encoding="UTF-8"?>
<svg width="24px" height="24px" viewBox="0 0 24 24" version="1.1" xmlns="http://www.w3.org/2000/svg" xmlns:xlink="http://www.w3.org/1999/xlink">
    <title>ic_close</title>
    <g id="Page-1" stroke="none" stroke-width="1" fill="none" fill-rule="evenodd">
        <g id="Desktop-HD-Copy" transform="translate(-1328.000000, -22.000000)" fill="#FFFFFF" fill-rule="nonzero">
            <path d="M1349.85162,22.3879313 L1340.00125,32.2382992 L1330.15088,22.3879313 C1329.65869,21.9375269 1328.89916,21.9543558 1328.4274,22.4261189 C1327.95563,22.8978819 1327.93881,23.6574072 1328.38921,24.1496029 L1338.23458,33.9999707 L1328.38671,43.8478398 C1328.0592,44.1599613 1327.92644,44.6249979 1328.03982,45.0629822 C1328.1532,45.5009666 1328.49493,45.8431759 1328.93275,45.9571765 C1329.37057,46.0711771 1329.8358,45.9390815 1330.14838,45.6120102 L1340.00125,35.7641411 L1349.85162,45.614509 C1350.34381,46.0649134 1351.10334,46.0480845 1351.5751,45.5763214 C1352.04686,45.1045584 1352.06369,44.3450331 1351.61329,43.8528374 L1341.76292,34.0024696 L1351.61329,24.1496029 C1351.9408,23.8374814 1352.07356,23.3724448 1351.96018,22.9344604 C1351.8468,22.4964761 1351.50507,22.1542668 1351.06725,22.0402662 C1350.62943,21.9262656 1350.1642,22.0583612 1349.85162,22.3854325 L1349.85162,22.3879313 Z" id="ic_close"></path>
        </g>
    </g>
</svg>